<svg xmlns="http://www.w3.org/2000/svg" xmlns:xlink="http://www.w3.org/1999/xlink" width="1024" zoomAndPan="magnify" viewBox="0 0 768 767.999994" height="1024" preserveAspectRatio="xMidYMid meet" version="1.0"><defs><clipPath id="053b19b60b"><path d="M 384 0 C 171.921875 0 0 171.921875 0 384 C 0 596.078125 171.921875 768 384 768 C 596.078125 768 768 596.078125 768 384 C 768 171.921875 596.078125 0 384 0 Z M 384 0 " clip-rule="nonzero"/></clipPath><clipPath id="0e349209a3"><path d="M 226 221 L 540 221 L 540 567.964844 L 226 567.964844 Z M 226 221 " clip-rule="nonzero"/></clipPath></defs><g clip-path="url(#053b19b60b)"><rect x="-76.8" width="921.6" fill="#cf4520" y="-76.799999" height="921.599993" fill-opacity="1"/></g><g clip-path="url(#0e349209a3)"><path fill="#e4e8ec" d="M 531.546875 257.003906 C 503.027344 199.921875 443.261719 224.117188 403.726562 240.128906 C 389.277344 245.988281 375.585938 251.53125 366.953125 252.097656 C 359.589844 248.820312 352.453125 245.378906 345.554688 242.050781 C 304.628906 222.324219 262.246094 201.886719 234.6875 257.003906 C 215.089844 296.203125 233.640625 384.121094 268.902344 422.601562 C 269.265625 519.371094 284.039062 568.429688 312.832031 568.429688 C 335.773438 568.429688 341.746094 539.664062 348.042969 509.214844 C 355.78125 471.863281 362.816406 445.429688 383.117188 445.429688 C 403.414062 445.429688 410.449219 471.863281 418.191406 509.210938 C 424.503906 539.660156 430.460938 568.429688 453.402344 568.429688 C 482.296875 568.429688 497.070312 519.070312 497.332031 421.714844 C 529.554688 372.195312 552.273438 298.476562 531.546875 257.003906 Z M 481.234375 414.199219 C 480.253906 415.675781 479.761719 417.300781 479.761719 419.074219 C 479.761719 505.59375 466.492188 550.859375 453.402344 550.859375 C 444.753906 550.859375 439.570312 525.789062 435.402344 505.652344 C 428.230469 470.988281 419.289062 427.859375 383.117188 427.859375 C 346.941406 427.859375 338.003906 470.988281 330.832031 505.652344 C 326.664062 525.789062 321.480469 550.859375 312.832031 550.859375 C 299.742188 550.859375 286.472656 505.59375 286.472656 419.074219 C 286.472656 417.910156 286.25 416.789062 285.804688 415.710938 C 285.359375 414.636719 284.726562 413.683594 283.902344 412.863281 C 250.679688 379.632812 235.339844 295.003906 250.40625 264.859375 C 269.382812 226.929688 292.171875 235.828125 337.917969 257.875 C 366.523438 271.664062 398.921875 287.289062 435.832031 287.289062 C 436.40625 287.289062 436.980469 287.234375 437.546875 287.121094 C 438.109375 287.007812 438.660156 286.839844 439.195312 286.621094 C 439.726562 286.398438 440.234375 286.128906 440.710938 285.808594 C 441.191406 285.488281 441.636719 285.125 442.042969 284.714844 C 442.453125 284.308594 442.816406 283.863281 443.136719 283.382812 C 443.457031 282.90625 443.726562 282.398438 443.949219 281.867188 C 444.167969 281.332031 444.335938 280.78125 444.449219 280.21875 C 444.5625 279.652344 444.617188 279.078125 444.617188 278.503906 C 444.617188 277.925781 444.5625 277.355469 444.449219 276.789062 C 444.335938 276.222656 444.167969 275.675781 443.949219 275.140625 C 443.726562 274.609375 443.457031 274.101562 443.136719 273.621094 C 442.816406 273.140625 442.453125 272.699219 442.042969 272.289062 C 441.636719 271.882812 441.191406 271.519531 440.710938 271.199219 C 440.234375 270.878906 439.726562 270.605469 439.195312 270.386719 C 438.660156 270.164062 438.109375 270 437.546875 269.886719 C 436.980469 269.773438 436.40625 269.71875 435.832031 269.71875 C 421.652344 269.53125 407.832031 267.199219 394.375 262.726562 C 399.417969 260.828125 404.753906 258.667969 410.316406 256.417969 C 458.035156 237.078125 496.113281 225.417969 515.828125 264.859375 C 531.445312 296.09375 516.238281 361.691406 481.234375 414.199219 Z M 481.234375 414.199219 " fill-opacity="1" fill-rule="nonzero"/></g></svg>